<?xml version="1.0" encoding="UTF-8"?>
<svg id="Ebene_1_Bild" data-name="Ebene 1 Bild" xmlns="http://www.w3.org/2000/svg" version="1.1" viewBox="0 0 806.8 148.8">
  <defs>
    <style>
      .cls-1 {
        fill: #ed1c29;
      }

      .cls-1, .cls-2 {
        stroke-width: 0px;
      }

      .cls-2 {
        fill: #231f20;
      }
    </style>
  </defs>
  <g>
    <path class="cls-1" d="M45.5,43.5c-2.2,2.9-3.2,6.8-3.1,11.7h-18.2c.2-4.9,1-9.6,2.5-14,1.6-3.9,4.1-7.4,7.5-10.7,2.6-2.3,5.6-4.1,9.1-5.3,3.5-1.2,7.8-1.8,12.9-1.8,9.5,0,17.1,2.4,22.9,7.3,5.8,4.9,8.7,11.5,8.7,19.7s-1.7,10.7-5.2,14.8c-2.2,2.5-4.5,4.2-6.8,5.1,1.8,0,4.3,1.5,7.7,4.6,5,4.6,7.4,10.9,7.4,18.9s-2.9,15.7-8.7,22.1c-5.8,6.4-14.4,9.5-25.8,9.5s-23.8-4.6-29.2-13.7c-2.9-4.9-4.5-11.2-4.8-19.1h19.1c0,4,.6,7.2,1.9,9.8,2.4,4.8,6.7,7.2,12.9,7.2s7.2-1.3,10-3.9c2.8-2.6,4.3-6.4,4.3-11.3s-2.6-10.9-7.9-13c-3-1.2-7.7-1.8-14.2-1.8v-13.9c6.3,0,10.7-.7,13.3-1.8,4.3-1.9,6.5-5.8,6.5-11.6s-1.1-6.9-3.3-9.2c-2.2-2.4-5.3-3.6-9.3-3.6s-8,1.5-10.1,4.4Z"/>
    <g>
      <path class="cls-1" d="M123.4,105.5v-57.1c-9-1.8-16.4-7.9-20.2-16v90.4h68.2v-17.4h-47.9Z"/>
      <path class="cls-2" d="M123.4,42.9v-16.8h-16.8c2.1,8.2,8.6,14.7,16.8,16.8Z"/>
    </g>
  </g>
  <g>
    <path class="cls-2" d="M253.9,103.1h-35.7l-6.7,19.9h-21.2l34.6-96.9h22.9l34.3,96.9h-22l-6.2-19.9ZM248.2,86.4l-12.1-38.1-12.5,38.1h24.6Z"/>
    <path class="cls-2" d="M380.3,123h-26l-29.9-42.4-9.7,9.9v32.4h-19.9V26.1h19.9v39.9l37.4-39.9h26.2l-39.7,39.9,41.8,57Z"/>
    <path class="cls-2" d="M449,85.7V26.1h20.6v59.6c0,10.3-1.6,18.3-4.8,24.1-6,10.5-17.3,15.8-34.1,15.8s-28.2-5.3-34.2-15.8c-3.2-5.7-4.8-13.8-4.8-24.1V26.1h20.6v59.6c0,6.7.8,11.5,2.4,14.6,2.5,5.4,7.8,8.2,16,8.2s13.5-2.7,16-8.2c1.6-3.1,2.4-7.9,2.4-14.6Z"/>
    <path class="cls-2" d="M524.1,109c4.8,0,8.7-.5,11.6-1.6,5.7-2,8.5-5.8,8.5-11.2s-1.4-5.7-4.2-7.4c-2.8-1.7-7.2-3.2-13.2-4.5l-10.3-2.3c-10.1-2.3-17.1-4.8-20.9-7.4-6.5-4.5-9.8-11.5-9.8-21s3.2-15.9,9.5-21.6c6.3-5.7,15.6-8.6,27.8-8.6s18.9,2.7,26.1,8.1c7.2,5.4,11,13.3,11.3,23.6h-19.5c-.4-5.8-2.9-10-7.6-12.4-3.2-1.6-7.1-2.4-11.8-2.4s-9.4,1.1-12.5,3.2c-3.1,2.1-4.7,5-4.7,8.8s1.5,6.1,4.6,7.8c2,1.1,6.2,2.5,12.6,4l16.7,4c7.3,1.8,12.8,4.1,16.6,7,5.8,4.6,8.7,11.2,8.7,19.8s-3.4,16.2-10.2,22.1c-6.8,5.9-16.3,8.8-28.7,8.8s-22.6-2.9-29.8-8.6c-7.2-5.8-10.9-13.7-10.9-23.8h19.3c.6,4.4,1.8,7.7,3.6,9.9,3.3,4,8.9,6,16.9,6Z"/>
    <path class="cls-2" d="M649.2,26.1v17.2h-29v79.8h-20.4V43.3h-29.1v-17.2h78.5Z"/>
    <path class="cls-2" d="M659.5,26.1h20.1v96.9h-20.1V26.1Z"/>
    <path class="cls-2" d="M784.4,123h-26l-29.9-42.4-9.7,9.9v32.4h-19.9V26.1h19.9v39.9l37.4-39.9h26.2l-39.7,39.9,41.8,57Z"/>
  </g>
</svg>