<?xml version="1.0" encoding="utf-8"?>
<svg id="Ebene_1_Bild" data-name="Ebene 1 Bild" xmlns="http://www.w3.org/2000/svg" version="1.1" viewBox="9.705 9.411 174.198 129.684" xmlns:bx="https://boxy-svg.com" width="174.198px" height="129.684px"><defs><style>
      .cls-1 {
        fill: #ed1c29;
      }

      .cls-1, .cls-2 {
        stroke-width: 0px;
      }

      .cls-2 {
        fill: #231f20;
      }
    </style><bx:export><bx:file format="svg"/></bx:export></defs><g><path class="cls-1" d="M45.5,43.5c-2.2,2.9-3.2,6.8-3.1,11.7h-18.2c.2-4.9,1-9.6,2.5-14,1.6-3.9,4.1-7.4,7.5-10.7,2.6-2.3,5.6-4.1,9.1-5.3,3.5-1.2,7.8-1.8,12.9-1.8,9.5,0,17.1,2.4,22.9,7.3,5.8,4.9,8.7,11.5,8.7,19.7s-1.7,10.7-5.2,14.8c-2.2,2.5-4.5,4.2-6.8,5.1,1.8,0,4.3,1.5,7.7,4.6,5,4.6,7.4,10.9,7.4,18.9s-2.9,15.7-8.7,22.1c-5.8,6.4-14.4,9.5-25.8,9.5s-23.8-4.6-29.2-13.7c-2.9-4.9-4.5-11.2-4.8-19.1h19.1c0,4,.6,7.2,1.9,9.8,2.4,4.8,6.7,7.2,12.9,7.2s7.2-1.3,10-3.9c2.8-2.6,4.3-6.4,4.3-11.3s-2.6-10.9-7.9-13c-3-1.2-7.7-1.8-14.2-1.8v-13.9c6.3,0,10.7-.7,13.3-1.8,4.3-1.9,6.5-5.8,6.5-11.6s-1.1-6.9-3.3-9.2c-2.2-2.4-5.3-3.6-9.3-3.6s-8,1.5-10.1,4.4Z"/><g><path class="cls-1" d="M123.4,105.5v-57.1c-9-1.8-16.4-7.9-20.2-16v90.4h68.2v-17.4h-47.9Z"/><path class="cls-2" d="M123.4,42.9v-16.8h-16.8c2.1,8.2,8.6,14.7,16.8,16.8Z"/></g></g></svg>